<svg xmlns="http://www.w3.org/2000/svg" xml:space="preserve" viewBox="0 0 1200 1200">
  <path fill="#FFF" d="M430.23 965.251c-12.148 3.184-19.408 15.925-16.214 28.459 3.193 12.534 15.629 20.114 27.777 16.93 12.148-3.183 19.408-15.925 16.215-28.458-3.194-12.535-15.63-20.115-27.778-16.931z"/>
  <path fill="#FFC727" d="M924.074 81.961c-32.334-23.882-346.017 65.515-357.531 101.893-12.666 40.016 49.699 333.195 99.335 348.555 56.158 17.379 357.33-64.21 357.531-101.893s-67-324.674-99.335-348.555zm-74.583 209.916c-6.928 2.066-12.611 4.278-18.013 6.349a214.568 214.568 0 0 1-19.801 6.571c1.688 7.565 3.101 15.022 4.325 22.282 1.893 11.287 3.691 21.943 6.987 32.558 3.053 9.872-2.469 20.349-12.341 23.418a18.626 18.626 0 0 1-6.356.824c-7.679-.332-14.665-5.398-17.077-13.15-4.017-13.012-6.104-25.437-8.149-37.448-1.109-6.644-2.298-13.04-3.67-19.336-7.948 2.596-15.964 5.56-22.739 8.056-6.175 2.298-11.635 4.29-15.721 5.594a18.742 18.742 0 0 1-6.48.865c-7.618-.33-14.577-5.333-17.022-13.026-3.146-9.845 2.317-20.371 12.161-23.501 3.653-1.17 8.525-2.974 14.079-5.039 7.772-2.865 16.479-6.074 25.284-8.914-2.92-9.412-5.888-18.803-8.777-28.23l-7.55-24.492c-3.052-9.887 2.469-20.364 12.341-23.417 9.872-3.053 20.351 2.423 23.433 12.341l7.575 24.6c3.076 10.046 6.237 20.06 9.36 30.089 5.562-1.53 10.837-3.315 16.659-5.561 6.21-2.403 12.761-4.913 20.772-7.314 9.987-2.911 20.339 2.682 23.3 12.58 2.96 9.914-2.681 20.34-12.58 23.301z"/>
  <path fill="#FFF" d="M838.771 255.997c-8.012 2.401-14.563 4.911-20.772 7.314-5.822 2.246-11.097 4.031-16.659 5.561-3.123-10.029-6.284-20.043-9.36-30.089l-7.575-24.6c-3.082-9.918-13.561-15.394-23.433-12.341-9.871 3.053-15.393 13.53-12.341 23.417l7.55 24.492c2.889 9.427 5.856 18.818 8.777 28.23-8.805 2.839-17.512 6.048-25.284 8.914-5.554 2.065-10.426 3.869-14.079 5.039-9.844 3.13-15.307 13.656-12.161 23.501 2.445 7.693 9.404 12.696 17.022 13.026 2.133.092 4.313-.18 6.48-.865 4.086-1.304 9.546-3.296 15.721-5.594 6.775-2.496 14.792-5.46 22.739-8.056 1.372 6.296 2.561 12.691 3.67 19.336 2.045 12.011 4.133 24.436 8.149 37.448 2.412 7.752 9.398 12.818 17.077 13.15a18.602 18.602 0 0 0 6.356-.824c9.872-3.069 15.393-13.546 12.341-23.418-3.296-10.615-5.094-21.271-6.987-32.558-1.224-7.26-2.637-14.717-4.325-22.282a214.768 214.768 0 0 0 19.801-6.571c5.402-2.071 11.085-4.283 18.013-6.349 9.898-2.961 15.54-13.387 12.58-23.3-2.96-9.899-13.312-15.492-23.3-12.581z"/>
  <path fill="#d93471" d="M1073.103 598.605c-34.658-24.469-338.37 19.807-363.6 87.675-18.278 49.169 39.194 270.619 73.41 307.615 34.215 36.995 355.487-34.277 366.286-85.248 7.246-34.203-35.969-281.712-76.096-310.042zM986.58 803.37l-103.702 25.137a17.892 17.892 0 0 1-6.225.393c-7.23-.82-13.521-6.044-15.338-13.529-2.341-9.58 3.558-19.237 13.136-21.564l103.702-25.136c9.64-2.349 19.252 3.559 21.564 13.136 2.338 9.595-3.56 19.251-13.137 21.563z"/>
  <path fill="#FFF" d="M978.153 768.671 874.45 793.807c-9.579 2.327-15.477 11.984-13.136 21.564 1.817 7.485 8.109 12.709 15.338 13.529a17.89 17.89 0 0 0 6.225-.393L986.58 803.37c9.577-2.312 15.475-11.969 13.136-21.563-2.312-9.577-11.923-15.485-21.563-13.136z"/>
  <path fill="#d93471" d="M148.041 650.697c44.733 27.688 340.228-63.609 349.414-102.281 14.874-62.615-28.915-303.984-92.116-327.968-26.931-10.219-339.578 63.449-351.368 100.169-23.99 74.719 67.443 313.599 94.07 330.08zm46.695-300.114c6.76-6.653 17.64-6.622 24.279.137 15.893 16.058 42.607 38.105 52.048 42.984 5.049-17.263 10.341-34.475 14.456-51.934 2.184-9.229 11.298-14.961 20.667-12.782 9.229 2.183 14.953 11.423 12.769 20.652-5.218 22.146-11.374 44.13-18.051 65.954 11.563 8.607 30.765 21.921 65.717 43.924 8.037 5.053 10.45 15.653 5.397 23.691-3.463 5.516-9.561 8.368-15.651 7.982a17.067 17.067 0 0 1-8.025-2.598c-27.877-17.54-46.077-29.783-58.596-38.679-6.83 19.858-14.05 39.563-22.028 58.891-2.882 6.969-9.842 11.029-16.965 10.577a17.393 17.393 0 0 1-5.473-1.259c-8.773-3.627-12.932-13.665-9.319-22.439 9.19-22.236 17.319-45.004 24.919-67.947-1.682-1.275-3.233-2.317-5.389-3.425-15.647-8.004-45.922-34.323-60.893-49.45-6.668-6.734-6.623-17.613.138-24.279z"/>
  <path fill="#FFF" d="M255.491 424.312c2.156 1.108 3.706 2.149 5.389 3.425-7.601 22.944-15.73 45.712-24.919 67.947-3.613 8.773.546 18.811 9.319 22.439a17.4 17.4 0 0 0 5.473 1.259c7.123.451 14.083-3.609 16.965-10.577 7.978-19.328 15.198-39.033 22.028-58.891 12.519 8.896 30.719 21.138 58.596 38.679a17.064 17.064 0 0 0 8.025 2.598c6.089.387 12.188-2.466 15.651-7.982 5.053-8.037 2.64-18.638-5.397-23.691-34.952-22.003-54.154-35.317-65.717-43.924 6.678-21.824 12.833-43.807 18.051-65.954 2.184-9.229-3.54-18.468-12.769-20.652-9.369-2.179-18.483 3.553-20.667 12.782-4.115 17.459-9.406 34.671-14.456 51.934-9.44-4.879-36.155-26.926-52.048-42.984-6.639-6.759-17.519-6.79-24.279-.137-6.761 6.667-6.806 17.546-.137 24.279 14.97 15.126 45.245 41.446 60.892 49.45z"/>
  <path fill="#FD8283" d="M560.503 713.91c-40.575-32.302-355.276 63.618-365.882 103.63-10.667 40.243 72.366 292.081 98.598 302.174 37.267 14.339 332.646-39.929 354.169-100.935 16.07-45.549-49.518-275.121-86.885-304.869zM391.255 828.494c12.148-3.183 24.585 4.397 27.777 16.931 3.193 12.534-4.066 25.275-16.214 28.459-12.148 3.184-24.585-4.397-27.777-16.931-3.194-12.535 4.066-25.276 16.214-28.459zm50.537 182.146c-12.148 3.184-24.584-4.397-27.777-16.93-3.193-12.534 4.066-25.275 16.214-28.459s24.585 4.397 27.777 16.931c3.194 12.533-4.066 25.275-16.214 28.458zm30.598-86.986-103.702 25.137a17.892 17.892 0 0 1-6.225.393c-7.23-.82-13.521-6.044-15.338-13.529-2.341-9.58 3.557-19.237 13.136-21.564l103.702-25.136c9.64-2.349 19.252 3.559 21.564 13.136 2.339 9.594-3.56 19.251-13.137 21.563z"/>
  <path fill="#FFF" d="M463.963 888.954 360.26 914.091c-9.579 2.327-15.477 11.984-13.136 21.564 1.817 7.485 8.108 12.709 15.338 13.529 2.024.229 4.117.115 6.225-.393l103.702-25.137c9.577-2.312 15.476-11.969 13.136-21.563-2.311-9.577-11.922-15.486-21.562-13.137zM402.818 873.883c12.148-3.184 19.407-15.925 16.214-28.459-3.193-12.534-15.629-20.114-27.777-16.931-12.148 3.184-19.408 15.925-16.214 28.459 3.193 12.534 15.629 20.115 27.777 16.931z"/>
</svg>
